<?xml version="1.0" encoding="iso-8859-1"?>
<!-- Generator: Adobe Illustrator 19.0.0, SVG Export Plug-In . SVG Version: 6.00 Build 0)  -->
<svg version="1.1" id="Layer_1" xmlns="http://www.w3.org/2000/svg" xmlns:xlink="http://www.w3.org/1999/xlink" x="0px" y="0px"
	 viewBox="0 0 512 512" style="enable-background:new 0 0 512 512;" xml:space="preserve">
<path style="fill:#F1414F;" d="M272.502,405.958h-79.723c-83.414,0-151.034-55.281-151.034-138.695V72.251h381.79v195.014
	C423.536,350.677,355.916,405.958,272.502,405.958z"/>
<path style="fill:#FFB085;" d="M297.575,459.629H167.709c-43.781,0-85.515-18.53-114.879-51.004l0,0h359.623l0,0
	C383.09,441.1,341.354,459.629,297.575,459.629z"/>
<path d="M496.576,56.827h-73.04h-4.333H183.793V52.37c0-8.519-6.905-15.424-15.424-15.424s-15.424,6.905-15.424,15.424v4.458H41.746
	c-8.519,0-15.424,6.905-15.424,15.424v195.014c0,44.055,17.552,83.891,49.424,112.166c5.654,5.016,11.693,9.609,18.058,13.772H52.83
	H15.424C6.905,393.203,0,400.108,0,408.627s6.905,15.424,15.424,15.424h30.772c31.912,32.491,75.798,51.004,121.511,51.004h129.866
	c45.715,0,89.601-18.513,121.511-51.004h30.772c8.519,0,15.424-6.905,15.424-15.424s-6.905-15.424-15.424-15.424h-37.406h-40.975
	c6.365-4.163,12.404-8.756,18.058-13.772c29.103-25.82,46.259-61.278,49.022-100.786C480.489,268.133,512,230.479,512,188.74V72.251
	C512,63.732,505.095,56.827,496.576,56.827z M297.575,444.205H167.709c-25.653,0-50.606-7.115-72.181-20.156h274.229
	C348.181,437.09,323.228,444.205,297.575,444.205z M408.112,267.265c0,71.428-57.031,123.269-135.609,123.269H192.78
	c-78.577,0-135.61-51.843-135.61-123.269V87.675h95.775v62.675c0,8.519,6.905,15.424,15.424,15.424
	c8.519,0,15.424-6.905,15.424-15.424V87.675h224.319V267.265z M481.152,188.739c0,25.158-17.626,48.147-42.192,57.528V87.675h42.192
	V188.739z"/>
<path d="M168.377,212.041c-1.018,0-2.021-0.093-3.023-0.293c-0.987-0.201-1.959-0.494-2.884-0.879s-1.82-0.864-2.668-1.419
	c-0.833-0.571-1.635-1.203-2.344-1.928c-0.709-0.71-1.357-1.496-1.913-2.344c-0.555-0.833-1.033-1.727-1.419-2.653
	c-0.386-0.941-0.679-1.897-0.879-2.884c-0.201-1.003-0.308-2.005-0.308-3.023c0-1.003,0.108-2.005,0.308-3.008
	c0.201-0.987,0.494-1.959,0.879-2.884c0.386-0.925,0.864-1.835,1.419-2.668c0.555-0.848,1.203-1.635,1.913-2.344
	c0.71-0.71,1.512-1.357,2.344-1.913c0.848-0.555,1.743-1.033,2.668-1.419c0.925-0.386,1.897-0.679,2.884-0.879
	c1.99-0.401,4.041-0.401,6.031,0c0.987,0.201,1.959,0.494,2.884,0.879c0.925,0.386,1.82,0.864,2.668,1.419
	c0.833,0.555,1.62,1.203,2.344,1.913c0.71,0.71,1.342,1.496,1.913,2.344c0.555,0.833,1.033,1.743,1.419,2.668
	c0.386,0.925,0.679,1.897,0.879,2.884c0.201,1.003,0.293,2.005,0.293,3.008c0,1.018-0.093,2.021-0.293,3.023
	c-0.201,0.987-0.494,1.943-0.879,2.884c-0.386,0.925-0.864,1.82-1.419,2.653c-0.571,0.848-1.203,1.635-1.913,2.344
	c-0.725,0.725-1.512,1.357-2.344,1.928c-0.848,0.555-1.743,1.033-2.668,1.419s-1.897,0.679-2.884,0.879
	C170.382,211.949,169.379,212.041,168.377,212.041z"/>
<polygon style="fill:#00AE90;" points="213.183,333.341 123.553,333.341 123.553,275.14 143.466,241.99 193.272,241.99 
	213.183,275.14 "/>
<path d="M213.183,348.765h-89.63c-8.519,0-15.424-6.905-15.424-15.424v-58.199c0-2.798,0.762-5.543,2.201-7.942l19.912-33.152
	c2.789-4.643,7.808-7.482,13.223-7.482h49.807c5.415,0,10.434,2.84,13.223,7.482l19.912,33.152c1.441,2.398,2.201,5.144,2.201,7.942
	v58.199C228.607,341.86,221.702,348.765,213.183,348.765z M138.977,317.917h58.782v-38.5l-13.215-22.004h-32.352l-13.215,22.004
	L138.977,317.917L138.977,317.917z"/>
<g>
</g>
<g>
</g>
<g>
</g>
<g>
</g>
<g>
</g>
<g>
</g>
<g>
</g>
<g>
</g>
<g>
</g>
<g>
</g>
<g>
</g>
<g>
</g>
<g>
</g>
<g>
</g>
<g>
</g>
</svg>
