<svg width="96" height="96" xmlns="http://www.w3.org/2000/svg">

 <g>
  <title>background</title>
  <rect fill="none" id="canvas_background" height="402" width="582" y="-1" x="-1"/>
 </g>
 <g>
  <title>Layer 1</title>
  <path fill="#ffffff" stroke="#ffffff" id="svg_1" d="m84.523,44.968l-11.313,11.313c-0.644,0.645 -1.308,1.238 -2.002,1.789c-2.644,2.121 -5.635,3.586 -8.768,4.412c-2.843,0.777 -5.812,1.004 -8.732,0.688c-2.716,-0.283 -5.402,-1.033 -7.913,-2.256c-2.362,-1.133 -4.575,-2.682 -6.526,-4.633c-1.951,-1.951 -3.5,-4.164 -4.632,-6.526c3.126,-2.22 7.496,-1.923 10.289,0.87c2.871,2.871 6.562,4.426 10.317,4.66c2.68,0.162 5.409,-0.348 7.885,-1.535c1.604,-0.756 3.104,-1.803 4.426,-3.125l11.313,-11.314c6.251,-6.25 6.294,-16.334 0.043,-22.585c-6.244,-6.244 -16.419,-6.293 -22.67,-0.042l-8.697,8.697c-3.289,-0.884 -6.683,-1.223 -10.062,-1.039c0.552,-0.693 1.146,-1.358 1.789,-2.001l11.313,-11.313c9.369,-9.369 24.572,-9.369 33.941,0s9.369,24.571 -0.001,33.94z"/>
  <path stroke="#ffffff" fill="#ffffff" id="svg_2" d="m56.239,73.252l-11.314,11.314c-9.369,9.369 -24.48,9.461 -33.856,0.084c-9.369,-9.369 -9.454,-24.656 -0.085,-34.025l11.313,-11.314c0.644,-0.644 1.308,-1.237 2.001,-1.789c2.645,-2.122 5.636,-3.585 8.769,-4.413c2.842,-0.778 5.812,-1.004 8.733,-0.686c2.715,0.283 5.402,1.033 7.913,2.255c2.361,1.132 4.575,2.681 6.526,4.632c1.951,1.952 3.5,4.165 4.631,6.526c-3.125,2.221 -7.494,1.924 -10.288,-0.87c-2.871,-2.871 -6.562,-4.426 -10.316,-4.66c-2.68,-0.163 -5.409,0.347 -7.884,1.535c-1.605,0.756 -3.104,1.803 -4.426,3.125l-11.315,11.315c-6.25,6.252 -6.25,16.377 0,22.627c6.251,6.252 16.377,6.252 22.627,0l8.697,-8.697c3.281,0.877 6.689,1.217 10.062,1.041c-0.55,0.693 -1.144,1.357 -1.788,2z"/>
 </g>
</svg>